/* XPM */
static char *bitcoin64[] = {
/* columns rows colors chars-per-pixel */
"64 64 98 2 ",
"   c #5423E3",
".  c #5926E4",
"X  c #5C29E5",
"o  c #5523E9",
"O  c #5A25EB",
"+  c #5E29E8",
"@  c #5F28F3",
"#  c #642BE6",
"$  c #6424E8",
"%  c #632AEB",
"&  c #6B2DEA",
"*  c #7231EB",
"=  c #7A34EC",
"-  c #6123F4",
";  c #642BF2",
":  c #6A2EF6",
">  c #6526F8",
",  c #662BFA",
"<  c #6A2EFA",
"1  c #792BF3",
"2  c #732EFA",
"3  c #6E32F3",
"4  c #6E31FA",
"5  c #7335F3",
"6  c #7B36F5",
"7  c #7738F3",
"8  c #7B3BF2",
"9  c #7334FA",
"0  c #7A36FA",
"q  c #7C3AFA",
"w  c #7E47FA",
"e  c #843AED",
"r  c #893CEE",
"t  c #813DF3",
"y  c #8033FA",
"u  c #8B37FA",
"i  c #833DF9",
"p  c #8A3EFA",
"a  c #913BFA",
"s  c #9A3DFA",
"d  c #9341EF",
"f  c #8240F3",
"g  c #8946F6",
"h  c #8541F9",
"j  c #8C42FA",
"k  c #9543F2",
"l  c #9B44F1",
"z  c #9342FA",
"x  c #9B45FA",
"c  c #9F48FA",
"v  c #A347F2",
"b  c #A34AF2",
"n  c #AB4CF4",
"m  c #A044FA",
"M  c #AB47FA",
"N  c #A449FA",
"B  c #AB4DFA",
"V  c #B34FF5",
"C  c #B345FA",
"Z  c #B14FFA",
"A  c #BA4DFB",
"S  c #A851F2",
"D  c #B652F5",
"F  c #BA54F6",
"G  c #B25DF5",
"H  c #BE58F5",
"J  c #B551FA",
"K  c #BC54FB",
"L  c #A761FB",
"P  c #C256FB",
"I  c #C855FB",
"U  c #C659FB",
"Y  c #CB5BFB",
"T  c #D25EFB",
"R  c #C364FB",
"E  c #CF60FB",
"W  c #D562FB",
"Q  c #DA64FC",
"!  c #DD6BFB",
"~  c #DF70FB",
"^  c #E46AFD",
"/  c #EE6EFC",
"(  c #FC6FFD",
")  c #E273FB",
"_  c #EE70FB",
"`  c #E67AFB",
"'  c #E87DFB",
"]  c #F474FC",
"[  c #FC76FD",
"{  c #F67BFD",
"}  c #FD7BFD",
"|  c #F583FC",
" . c #FC84FD",
".. c #F789FC",
"X. c #FC8BFD",
"o. c #FD93FD",
"O. c #FD9BFE",
"+. c None",
/* pixels */
"+.+.+.+.+.+.+.+.+.+.+.+.+.+.+.+.+.+.+.+.+.+.+.+.+.+.+.+.+.+.+.+.+.+.+.+.+.+.+.+.+.+.+.+.+.+.+.+.+.+.+.+.+.+.+.+.+.+.+.+.+.+.+.+.",
"+.+.+.+.+.+.+.+.+.+.+.+.+.+.+.+.+.+.+.+.+.+.+.+.+.+.+.+.+.+.+.+.+.+.+.+.+.+.+.+.+.+.+.+.+.+.+.+.+.+.+.+.+.+.+.+.+.+.+.+.+.+.+.+.",
"+.+.+.+.+.+.+.+.+.+.+.+.+.+.+.+.+.+.+.+.+.+.+.+.+.+.+.+.+.+.+.+.+.+.+.+.+.+.+.+.+.+.+.+.+.+.+.+.+.+.+.+.+.+.+.+.+.+.+.+.+.+.+.+.",
"+.+.+.+.+.+.+.+.+.+.+.+.+.+.+.+.+.+.+.+.+.+.+.+.+.+.+.+.+.+.+.+.+.+.+.+.+.+.+.+.+.+.+.+.+.+.+.+.+.+.+.+.+.+.+.+.+.+.+.+.+.+.+.+.",
"+.+.+.+.+.+.+.+.+.+.+.+.+.+.+.+.+.+.+.+.+.+.+.+.+.+.+.+.( ( ( [ ( ( ( [ +.+.+.+.+.+.+.+.+.+.+.+.+.+.+.+.+.+.+.+.+.+.+.+.+.+.+.+.",
"+.+.+.+.+.+.+.+.+.+.+.+.+.+.+.+.+.+.+.+.+.+.+.+.+.+.( [ [ } [ [ } [ } [ ( ( [ +.+.+.+.+.+.+.+.+.+.+.+.+.+.+.+.+.+.+.+.+.+.+.+.+.",
"+.+.+.+.+.+.+.+.+.+.+.+.+.+.+.+.+.+.+.+.+.+.+.+.} } } } [ [ [ [ [ [ [ [ } [ [ [ +.+.+.+.+.+.+.+.+.+.+.+.+.+.+.+.+.+.+.+.+.+.+.+.",
"+.+.+.+.+.+.+.+.+.+.+.+.+.+.+.+.+.+.+.+.+.+.+. . .} } } } } [ } [ [ [ [ [ [ [ [ [ +.+.+.+.+.+.+.+.+.+.+.+.+.+.+.+.+.+.+.+.+.+.+.",
"+.+.+.+.+.+.+.+.+.+.+.+.+.+.+.+.+.+.+.+.+.+.X.X. . . . .} } } } } [ [ [ [ [ [ [ [ [ +.+.+.+.+.+.+.+.+.+.+.+.+.+.+.+.+.+.+.+.+.+.",
"+.+.+.+.+.+.+.+.+.+.+.+.+.+.+.+.+.+.+.+.+.+.X.X.X.X. . . . . .} } } } [ [ [ [ } [ [ ( +.+.+.+.+.+.+.+.+.+.+.+.+.+.+.+.+.+.+.+.+.",
"+.+.+.+.+.+.+.+.+.+.+.+.+.+.+.+.+.+.+.+.+.o.o.o.o.X.X.X.X. . .} } } } } } [ [ [ [ } ( +.+.+.+.+.+.+.+.+.+.+.+.+.+.+.+.+.+.+.+.+.",
"+.+.+.+.+.+.+.+.+.+.+.+.+.+.+.+.+.+.+.+.O.o.X.X. . . . .X.X.X.X. . . .} } } } [ [ [ } ( +.+.+.+.+.+.+.+.+.+.+.+.+.+.+.+.+.+.+.+.",
"+.+.+.+.+.+.+.+.+.+.+.+.+.+.+.+.+.+.+.+. .[ [ [ [ [ [ [ }  . .X.X. . . . .} } } } [ [ [ } +.+.+.+.+.+.+.+.+.+.+.+.+.+.+.+.+.+.+.",
"+.+.+.+.+.+.+.+.+.+.+.+.+.+.+.+.+.+.+.( ( [ [ } } [ [ [ [ [ [ } X.X.X. . . . . .} } } [ ( +.+.+.+.+.+.+.+.+.+.+.+.+.+.+.+.+.+.+.",
"+.+.+.+.+.+.+.+.+.+.+.+.+.+.+.+.+.+.+.( } [ [ [ [ } [ [ [ [ [ [ }  .X.X.X.X. . . . .} } } } +.+.+.+.+.+.+.+.+.+.+.+.+.+.+.+.+.+.",
"+.+.+.+.+.+.+.+.+.+.+.+.+.+.+.+.+.+.[ [ [ [ [ [ [ [ [ [ [ [ [ [ [ [  .o.X.X.X. . . . . .} } +.+.+.+.+.+.+.+.+.+.+.+.+.+.+.+.+.+.",
"+.+.+.+.+.+.+.+.+.+.+.+.+.+.+.+.+. .( } [ [ } [ [ [ [ [ } [ [ } [ [ [  .o.o.X.X.X.X. . . . .} +.+.+.+.+.+.+.+.+.+.+.+.+.+.+.+.+.",
"+.+.+.+.+.+.+.+.+.+.+.+.+.+.+.+.+.( } [ [ [ [ [ } [ [ [ [ [ [ [ [ [ [ [  .o.o.X.X.X.X.X. . . .o.+.+.+.+.+.+.+.+.+.+.+.+.+.+.+.+.",
"+.+.+.+.+.+.+.+.+.+.+.+.+.+.+.+.[ [ [ [ [ [ [ [ [ [ [ [ [ [ } [ [ } [ [ [ } o.o.o.X.X.o.X.X. . .+.+.+.+.+.+.+.+.+.+.+.+.+.+.+.+.",
"+.+.+.+.+.+.+.+.+.+.+.+.+.+.+.+.( } } } } } } } } } } [ [ [ [ [ [ [ } [ ] [ } ..o.O.o.o.X.X.X.X.| +.+.+.+.+.+.+.+.+.+.+.+.+.+.+.",
"+.+.+.+.+.+.+.+.+.+.+.+.+.+.+.[ } { Q D v a d k b H ! [ } } [ [ [ [ [ ] { { ] {  ...X.o.o.X.....] +.+.+.+.+.+.+.+.+.+.+.+.+.+.+.",
"+.+.+.+.+.+.+.+.+.+.+.+.+.+. .] H e & % & & & & & & & r H _ } [ [ ] [ { { { { { { { { | | | ..| / z +.+.+.+.+.+.+.+.+.+.+.+.+.+.",
"+.+.+.+.+.+.+.+.+.+.+.+.+.+.W e # & * 6 6 6 q q y i 0 0 3 e F ] } ] { { { { { { | | | | ....| } J 0 +.+.+.+.+.+.+.+.+.+.+.+.+.+.",
"+.+.+.+.+.+.+.+.+.+.+.+.+.F & & 5 6 i y i i i i i i i u i i 6 z W [ } { { { | | | | ......| ] U p z u +.+.+.+.+.+.+.+.+.+.+.+.+.",
"+.+.+.+.+.+.+.+.+.+.+.+.+.& * y i i u i i i i p p p i p p p p p p J ^ [ { { | | ....| | { / U z z z a L +.+.+.+.+.+.+.+.+.+.+.+.",
"+.+.+.+.+.+.+.+.+.+.+.+.$ 6 p i p p p i p p a p p p p p j p z p j p z J Q / ] ] ] _ _ / Q J z z x x x x +.+.+.+.+.+.+.+.+.+.+.+.",
"+.+.+.+.+.+.+.+.+.+.+.& 6 p j p p j p p j z j z j z z z z z z z z z z z z N K U E E U J x z c x c c m m s +.+.+.+.+.+.+.+.+.+.+.",
"+.+.+.+.+.+.+.+.+.+.+.1 j z p z z a z z z z z z z z x z x +.+.+.+.+.+.c c x x z z x x x c c N N N N N N m +.+.+.+.+.+.+.+.+.+.+.",
"+.+.+.+.+.+.+.+.+.+.t a z z z z z x z z x x z x x x c +.+.+.+.+.+.+.+.+.+.N c m N N N N N N N N N N B N N B +.+.+.+.+.+.+.+.+.+.",
"+.+.+.+.+.+.+.+.+.+.a z x x x z x x x x x x x c c c +.+.+.+.+.+.+.+.+.+.+.+.B N N N B N B B B B B B B Z Z M +.+.+.+.+.+.+.+.+.+.",
"+.+.+.+.+.+.+.+.+.x x x x c x c c x x N x N x N m +.+.+.+.+.+.+.+.+.+.+.+.+.+.B B B B Z B Z Z Z Z Z Z Z J Z J +.+.+.+.+.+.+.+.+.",
"+.+.+.+.+.+.+.+.s c c c c m m N m N N N N B N B +.+.+.+.+.+.+.+.+.+.+.+.+.+.+.+.Z Z Z Z Z Z J J J J J J J J A C +.+.+.+.+.+.+.+.",
"+.+.+.+.+.+.+.+.N N N N N c B N B N B B B N B B +.+.+.+.+.+.+.+.+.+.+.+.+.+.+.+.J J A K K K A D D K K P P K K A +.+.+.+.+.+.+.+.",
"+.+.+.+.+.+.+.N N N B B B B B B B B B B B Z Z +.+.+.+.+.+.+.+.+.+.+.+.+.+.+.+.+.+.K Z l r = & % # & * 8 k Z U U U +.+.+.+.+.+.+.",
"+.+.+.+.+.+.+.B B B B B B Z Z Z B Z J J Z Z Z +.+.+.+.+.+.+.+.+.+.+.+.+.+.+.+.+.+.* o         o O O o o o O = n U +.+.+.+.+.+.+.",
"+.+.+.+.+.+.J B Z J Z J Z Z J D J J J J K D K +.+.+.+.+.+.+.+.+.+.+.+.+.+.+.+.+.+.  o O @ , , , , , , < < , ; @ r P +.+.+.+.+.+.",
"+.+.+.+.+.+.J J Z J J J J J F A J K K K K K K +.+.+.+.+.+.+.+.+.+.+.+.+.+.+.+.+.+.@ < , , , , , , , < , < < < < , 2 +.+.+.+.+.+.",
"+.+.+.+.+.J K J J K K K K K K K K K U K P K U +.+.+.+.+.+.+.+.+.+.+.+.+.+.+.+.+.+., , , , , , < , < < < < < < < < < 2 +.+.+.+.+.",
"+.+.+.+.K K K K K K K U P P P P P U U P P U U +.+.+.+.+.+.+.+.+.+.+.+.+.+.+.+.+.+., , , , , < < < < < < < < 4 4 4 9 < w +.+.+.+.",
"+.+.+.+.P K U U U K U U P U U U U U U U Y Y E E +.+.+.+.+.+.+.+.+.+.+.+.+.+.+.+., < , < < < < < < < 4 4 4 4 4 4 4 9 9 < +.+.+.+.",
"+.+.+.R U U I U U U U Y Y U Y Y U T E E E E Q Q +.+.+.+.+.+.+.+.+.+.+.+.+.+.+.+.< < < < < < 4 4 4 4 4 4 4 9 9 9 9 9 9 9 9 +.+.+.",
"+.+.+.I U U U T Y Y Y Y T Y Y W W W Q Q ! ! ~ ~ Q +.+.+.+.+.+.+.+.+.+.+.+.+.+.< < < < < < 4 4 4 4 4 4 9 9 9 9 9 9 9 q 9 < +.+.+.",
"+.+.G T Y T T T T T T T W W Q W ! ! ! ! ! ~ ~ W Q A +.+.+.+.+.+.+.+.+.+.+.+.< < < 4 < 4 4 4 4 9 9 9 9 9 9 9 9 9 9 9 9 9 2 +.+.+.",
"+.+.S T T T T T W W Q Q ! Q ! ~ ! ~ ~ ) ) ! W W l +   +.+.+.+.+.+.+.+.+.+.4 < 4 4 4 4 4 9 4 9 9 9 9 9 9 9 9 9 9 9 q q q 9 h +.+.",
"+.+.l Q W W Q Q Q ! ! ! ! ) ) ) ) ) ) ) ! Q J *         ; +.+.+.+.+.+.4 4 < 4 4 4 9 9 9 9 4 9 9 9 9 q 9 9 q 9 q 9 q q q q q +.+.",
"+.+.e Q W ! ! ! ! ) ~ ) ) ) ) ` ' ) ! Q U r     .   X ; < < < < 4 4 4 4 4 4 9 4 9 9 9 9 9 9 9 9 9 9 9 q 9 q q q q q q q q q +.+.",
"+.+.# Y W ! ~ ~ ) ) ) ) ) ' ` ) ^ Q I l X   . . . X < 4 4 < 4 4 4 4 4 9 9 9 9 9 9 9 9 9 9 9 q q 9 q q q q q q q q q q q q q +.+.",
"+.+.  r Q W ! ~ ) ' ' ` ) ) Q Q U l #     . . . % < < 4 4 4 4 4 4 4 9 9 9 9 9 9 9 9 9 q q 9 q 9 q q 9 q q q q q q w i q i i +.+.",
"+.+.X   d T Q Q Q Q Q Q Q T V r X   . . . . X ; 4 4 4 4 4 9 4 9 5 9 9 9 9 5 9 9 9 9 9 q 0 0 q q q q q q q h q q i q q h w +.+.+.",
"+.+.+.    & l J P F V v r #     . X . . . X 4 4 4 4 4 9 4 9 9 9 5 5 3 3 3 3 3 3 5 5 5 5 5 6 q q q q q w q q w i i h i h 0 +.+.+.",
"+.+.+.    .   . . .       . . . . . . X ; 4 4 4 4 4 0 9 5 4 3 3 3 3 3 3 3 3 * 5 5 5 5 5 5 5 3 6 q q i i q h i h i h h i h +.+.+.",
"+.+.+.+.  .       . . . . . . . . X % 4 4 9 0 4 9 9 4 3 3 3 3 3 3 3 5 3 5 5 5 5 5 5 5 5 7 5 7 7 8 q q i h i h h h h h i +.+.+.+.",
"+.+.+.+.% O   X . . . . . . X + ; 4 9 4 0 4 9 9 3 3 3 3 3 3 3 3 5 5 5 5 5 5 5 5 5 7 5 7 7 7 7 7 7 7 8 t p i h h h h j j +.+.+.+.",
"+.+.+.+.+.- ; % + X X % $ % 4 4 9 9 9 9 4 5 3 3 3 3 3 3 * 3 5 5 5 5 3 5 7 5 7 5 5 7 7 7 7 8 7 8 8 8 8 8 8 h h j j h g +.+.+.+.+.",
"+.+.+.+.+.+.> 4 4 4 4 4 4 9 9 9 4 0 9 9 3 3 3 3 3 3 5 5 5 5 5 5 5 5 5 5 5 7 7 7 7 7 7 7 = 8 8 8 8 8 8 8 8 t g g j g +.+.+.+.+.+.",
"+.+.+.+.+.+.+.4 4 9 4 9 0 9 9 9 5 3 3 3 3 3 3 5 5 5 5 5 5 5 5 5 7 5 7 7 7 7 7 8 7 7 8 8 8 8 8 8 8 8 w 8 w 8 t j j +.+.+.+.+.+.+.",
"+.+.+.+.+.+.+.+.- ; 4 3 4 3 3 3 3 3 3 3 5 5 3 5 5 5 5 7 5 7 5 7 7 7 7 7 7 7 8 8 8 8 8 8 8 8 8 8 t 8 8 w t t w g +.+.+.+.+.+.+.+.",
"+.+.+.+.+.+.+.+.+.+.5 3 3 3 3 5 3 5 5 5 5 5 5 5 7 5 5 5 7 7 7 7 7 7 7 8 8 8 8 8 8 8 8 8 8 t w 8 t t t t f t +.+.+.+.+.+.+.+.+.+.",
"+.+.+.+.+.+.+.+.+.+.+.+.+.5 * 5 5 5 7 3 3 7 7 7 7 7 7 8 5 7 8 8 8 8 8 8 8 8 7 8 8 f 8 w f f 8 f e f +.+.+.+.+.+.+.+.+.+.+.+.+.+.",
"+.+.+.+.+.+.+.+.+.+.+.+.+.+.+.+.+.+.+.+.+.+.+.+.+.+.+.+.+.+.+.+.+.+.+.+.+.+.+.+.+.+.+.+.+.+.+.+.+.+.+.+.+.+.+.+.+.+.+.+.+.+.+.+.",
"+.+.+.+.+.+.+.+.+.+.+.+.+.+.+.+.+.+.+.+.+.+.+.+.+.+.+.+.+.+.+.+.+.+.+.+.+.+.+.+.+.+.+.+.+.+.+.+.+.+.+.+.+.+.+.+.+.+.+.+.+.+.+.+.",
"+.+.+.+.+.+.+.+.+.+.+.+.+.+.+.+.+.+.+.+.+.+.+.+.+.+.+.+.+.+.+.+.+.+.+.+.+.+.+.+.+.+.+.+.+.+.+.+.+.+.+.+.+.+.+.+.+.+.+.+.+.+.+.+.",
"+.+.+.+.+.+.+.+.+.+.+.+.+.+.+.+.+.+.+.+.+.+.+.+.+.+.+.+.+.+.+.+.+.+.+.+.+.+.+.+.+.+.+.+.+.+.+.+.+.+.+.+.+.+.+.+.+.+.+.+.+.+.+.+.",
"+.+.+.+.+.+.+.+.+.+.+.+.+.+.+.+.+.+.+.+.+.+.+.+.+.+.+.+.+.+.+.+.+.+.+.+.+.+.+.+.+.+.+.+.+.+.+.+.+.+.+.+.+.+.+.+.+.+.+.+.+.+.+.+."
};
