/* XPM */
static char *bitcoin32[] = {
/* columns rows colors chars-per-pixel */
"32 32 82 1 ",
"  c #4F1DE1",
". c #5423E2",
"X c #5826E3",
"o c #5C28E7",
"O c #5B27E8",
"+ c #5A26F3",
"@ c #5E28F8",
"# c #642CE5",
"$ c #642BEE",
"% c #6230EA",
"& c #7532EB",
"* c #7A34EB",
"= c #6023F5",
"- c #642BF1",
"; c #6B2EF3",
": c #622AF9",
"> c #6B2EFA",
", c #712DF2",
"< c #6F32F4",
"1 c #6E31FA",
"2 c #7335F4",
"3 c #7836F7",
"4 c #7638F3",
"5 c #7B3BF2",
"6 c #7334FA",
"7 c #7A36F9",
"8 c #7738FA",
"9 c #7B3AFA",
"0 c #8337F3",
"q c #803EF2",
"w c #883CF5",
"e c #823EF9",
"r c #8A3DFB",
"t c #913FFB",
"y c #9744EF",
"u c #8641F7",
"i c #8641F9",
"p c #8D42FA",
"a c #8D4DF9",
"s c #9C45F2",
"d c #944EF6",
"f c #9442FA",
"g c #9B45FA",
"h c #A047F2",
"j c #A44AF2",
"k c #AC4CF5",
"l c #A045FA",
"z c #A44AFA",
"x c #AB4CFA",
"c c #B24EF3",
"v c #B24FFA",
"b c #B654F5",
"n c #BD55F6",
"m c #B551FB",
"M c #BB54FB",
"N c #A064FB",
"B c #AE6EFB",
"V c #C359F7",
"C c #C256FB",
"Z c #C55AFB",
"A c #CC5BFB",
"S c #D25FFB",
"D c #CF61FB",
"F c #D562FB",
"G c #DA65FB",
"H c #DE6AFC",
"J c #E26DFC",
"K c #E96DFD",
"L c #FC6EFD",
"P c #E273FB",
"I c #EC75FD",
"U c #E779FB",
"Y c #ED7BFD",
"T c #F576FC",
"R c #FC75FD",
"E c #F47CFC",
"W c #FD7AFD",
"Q c #F782FC",
"! c #FC83FD",
"~ c #FC8AFD",
"^ c #FD91FD",
"/ c None",
/* pixels */
"////////////////////////////////",
"////////////////////////////////",
"//////////////WRRR!/////////////",
"////////////!RRRRRRRR///////////",
"///////////~~!!WWWRWL///////////",
"///////////^~~!!!WWWRR//////////",
"//////////WWRWW!~!!WWL!/////////",
"/////////!LRRRRRW~~~!!R/////////",
"/////////WWWWWRRRW~~~~!!////////",
"////////LWTTTWWWWLW~^^~~////////",
"////////GbhsjVJRWWTTQ~~~I///////",
"///////c&;;;;<wMKW!EQ~~QmN//////",
"//////y;3errrre7gDIEQQIZtf//////",
"//////,tttptppgprpxMZZxgggz/////",
"/////dtffgfggg/////ggggzxzz/////",
"/////fggglzzz///////xvmMMMMM////",
"////lzzzzzxx////////MmxsshcM////",
"///xxxxvvvvv/////////&$$-$;0k///",
"///mmMMmMMMM/////////++@::::>B//",
"//MMMMMCZMZA/////////:>>>>>1>6//",
"//ZZZZAAAADJ////////>>>1111166>/",
"/ZAADDSFGHPIZ//////>>>111666667/",
"/CGGGHJPUIHj#.-///11161668686999",
"/yKJPUYYJb*..->>1166868688999997",
"/#kHJJSj*X.O;166666266899999ee9i",
"/ .&**#..X$1611<<<<222249eeeeea/",
"//%...Xo$1666<<<<222244445eiii//",
"///=;;;666<<<<2222444445555ipp//",
"////;66<<<<<2422444455555u5u////",
"//////<<22444445555555qqq5//////",
"////////////////////////////////",
"////////////////////////////////"
};
